# Blender 5.0.1
# www.blender.org
mtllib Building1.mtl
o Cube
v 1.786680 0.369441 -2.358632
v 1.786680 -0.004226 -2.358632
v 1.969002 0.428317 2.352467
v 1.969002 -0.001816 2.352467
v -1.786680 0.369441 -2.358632
v -1.786680 -0.004226 -2.358632
v -1.969002 0.428317 2.358632
v -1.969002 -0.013850 2.358632
v -1.969002 2.669740 2.358632
v -1.786680 2.337194 -2.358632
v 1.969002 2.409606 2.352467
v 1.529452 2.669740 2.358632
v 1.519478 2.337194 -2.358632
v 1.786680 2.334271 -2.358632
v 1.529452 4.997355 -2.358632
v 1.529452 4.997355 2.358632
v 1.529452 2.669740 2.358632
v 1.529452 2.669740 -2.358632
v 1.529452 4.997355 -2.358632
v 1.529452 4.997355 2.358632
v 1.529452 2.669740 -0.006599
v 1.529452 4.997355 -0.006599
v 1.529452 2.674149 0.528851
v 1.529452 2.674149 1.823182
v 1.529452 4.496367 0.528851
v 1.529452 4.496367 1.823182
v 1.232479 2.674149 0.528851
v 1.232479 2.674149 1.823182
v 1.232479 4.496367 0.528851
v 1.232479 4.496367 1.823182
v 1.529452 3.833547 2.358632
v -0.126885 4.997355 2.358632
v -1.969002 3.582825 2.358632
v -1.969002 3.582825 -2.358632
v -0.126885 4.997355 -2.358632
v 1.969002 -0.001816 -2.352467
v -1.969002 -0.013850 -2.358632
v 1.969002 0.428317 -2.352467
v -1.969002 0.428317 -2.358632
v -1.969002 2.669740 -2.358632
v 1.969002 2.409606 -2.352467
v 1.529452 2.669740 -2.358632
v 1.786680 -0.004226 -4.436504
v -1.786680 -0.004226 -4.436504
v 1.786680 0.369441 -4.436504
v -1.786680 0.369441 -4.436504
v -1.786680 2.337194 -4.436504
v 1.786680 2.334271 -4.436504
v 1.519478 2.337194 -4.436504
v 1.529452 5.380742 -2.210176
v 1.529452 5.380742 2.210176
v -0.002953 5.380742 2.210176
v -0.002953 5.380742 -2.210176
v 2.368112 4.997355 -2.358632
v 2.368112 4.997355 2.358632
v 2.244180 5.380742 -2.210176
v 2.244180 5.380742 2.210176
v 1.969002 0.428317 -2.358632
v 1.969002 -0.013850 -2.358632
v 1.969002 0.428317 2.358632
v 1.969002 -0.013850 2.358632
v 1.969002 2.664324 2.358632
v 1.834476 2.665236 -2.285831
v 2.345497 2.409606 2.352467
v 2.345497 2.409606 -2.352467
v 2.345497 2.621984 2.357607
v 1.969002 2.664324 2.358632
v 1.969002 2.664324 -2.358632
v 2.345497 2.621984 -2.357607
v 1.399167 3.418466 3.476282
v 1.399167 3.061140 3.476282
v 1.399167 5.251274 3.476282
v 1.399167 5.251274 2.663320
v 1.399167 3.418466 2.597395
v 1.399167 3.061140 2.597395
v 1.399167 5.248629 2.597395
v 1.269149 3.061140 3.476282
v 1.269149 3.418466 3.476282
v 1.269149 3.418466 2.597395
v 1.269149 3.061140 2.597395
v 1.269149 5.251274 3.476282
v 1.269149 5.251274 2.663320
v 1.269149 5.248629 2.597395
v 1.404407 2.971577 3.576823
v 1.404407 3.363408 3.576823
v 1.404407 3.363408 2.505456
v 1.404407 2.971577 2.505456
v 1.404407 5.349660 3.576823
v 1.404407 5.349660 2.625039
v 1.404407 5.344860 2.505456
v 1.263909 2.971577 3.576823
v 1.263909 3.363408 3.576823
v 1.263909 3.363408 2.505456
v 1.263909 2.971577 2.505456
v 1.263909 5.349660 3.576823
v 1.263909 5.349660 2.625039
v 1.263909 5.344860 2.505456
v 1.338928 3.061140 3.476282
v 1.338928 3.418466 3.476282
v 1.338928 3.418466 2.597395
v 1.338928 3.061140 2.597395
v 1.338928 5.251274 3.476282
v 1.338928 5.251274 2.663320
v 1.338928 5.248629 2.597395
v 1.311312 3.061140 3.476282
v 1.311312 3.418466 3.476282
v 1.311312 3.418466 2.597395
v 1.311312 3.061140 2.597395
v 1.311312 5.251274 3.476282
v 1.311312 5.251274 2.663320
v 1.311312 5.248629 2.597395
v 1.212108 4.075596 2.939271
v 1.212108 4.142156 2.939271
v 1.212108 4.142156 2.109551
v 1.212108 4.075596 2.109551
v 1.212108 4.483560 2.939271
v 1.212108 4.483560 2.171788
v 1.212108 4.483067 2.109551
v 1.278939 4.075596 2.939271
v 1.278939 4.142156 2.939271
v 1.278939 4.142156 2.109551
v 1.278939 4.075596 2.109551
v 1.278939 4.483560 2.939271
v 1.278939 4.483560 2.171788
v 1.278939 4.483067 2.109551
v 1.213303 4.615750 2.810213
v 1.213303 4.655758 2.810213
v 1.213303 4.655758 1.980493
v 1.213303 4.615750 1.980493
v 1.213303 4.860970 2.810213
v 1.213303 4.860970 2.042730
v 1.213303 4.860673 1.980493
v 1.280134 4.615750 2.810213
v 1.280134 4.655758 2.810213
v 1.280134 4.655758 1.980493
v 1.280134 4.615750 1.980493
v 1.280134 4.860970 2.810213
v 1.280134 4.860970 2.042730
v 1.280134 4.860673 1.980493
v 2.021498 0.409315 2.129065
v 2.021498 0.033753 2.129065
v 2.021498 2.139230 2.129065
v 2.021498 0.033753 -1.448325
v 2.021498 0.409315 -1.448325
v 2.021498 2.139230 -1.448325
v 2.061097 0.409315 -1.448325
v 2.061097 0.033753 -1.448325
v 2.061097 0.409315 2.129065
v 2.061097 0.033753 2.129065
v 2.061097 2.139230 2.129065
v 2.061097 2.139230 -1.448325
v 1.786117 0.180587 -2.594891
v 1.786117 0.002869 -2.594891
v 1.786117 1.115075 -2.594891
v 1.786117 0.002869 -4.237172
v 1.786117 0.180587 -4.237172
v 1.786117 1.115075 -4.237172
v 2.079059 0.180587 -2.594891
v 2.079059 0.002869 -2.594891
v 2.079059 1.115075 -2.594891
v 2.079059 0.180587 -4.237172
v 2.079059 0.002869 -4.237172
v 2.079059 1.115075 -4.237172
v 2.394861 0.180587 -2.594891
v 2.394861 0.002869 -2.594891
v 2.394861 0.829468 -2.594891
v 2.394861 0.180587 -4.237172
v 2.394861 0.002869 -4.237172
v 2.394861 0.829468 -4.237172
v 0.640471 2.343609 -2.363991
v 0.002752 2.343609 -2.363991
v 0.640471 2.904518 -2.363991
v 0.002752 2.904518 -2.363991
v 0.480020 2.451584 -2.757506
v 0.163203 2.451584 -2.757506
v 0.480020 2.796542 -2.757506
v 0.163203 2.796542 -2.757506
v 0.321611 2.392512 -2.757506
v 0.321611 2.851012 -2.757506
v 0.102885 2.624063 -2.757506
v 0.540337 2.624063 -2.757506
v 0.321611 2.343609 -2.757506
v 0.002752 2.343609 -2.757506
v 0.321611 2.904518 -2.757506
v 0.002752 2.904518 -2.757506
v 0.002752 2.624063 -2.757506
v 0.640471 2.624063 -2.757506
v 0.640471 2.343609 -2.757506
v 0.640471 2.904518 -2.757506
v 0.321611 2.624063 -2.696342
v 0.321611 2.851012 -2.696342
v 0.321611 2.392512 -2.696342
v 0.540337 2.624063 -2.696342
v 0.102885 2.624063 -2.696342
v 0.163203 2.451584 -2.696342
v 0.163203 2.796542 -2.696342
v 0.480020 2.451584 -2.696342
v 0.480020 2.796542 -2.696342
v 0.321611 2.624063 -2.738724
v 0.321611 2.851012 -2.738724
v 0.321611 2.392512 -2.738724
v 0.540337 2.624063 -2.738724
v 0.102885 2.624063 -2.738724
v 0.163203 2.796542 -2.738724
v 0.480020 2.451584 -2.738724
v 0.163203 2.451584 -2.738724
v 0.480020 2.796542 -2.738724
v -0.050099 2.343609 -2.363991
v -0.687818 2.343609 -2.363991
v -0.050099 2.904518 -2.363991
v -0.687818 2.904518 -2.363991
v -0.210550 2.451584 -2.757506
v -0.527367 2.451584 -2.757506
v -0.210550 2.796542 -2.757506
v -0.527367 2.796542 -2.757506
v -0.368959 2.392512 -2.757506
v -0.368959 2.851012 -2.757506
v -0.587685 2.624063 -2.757506
v -0.150233 2.624063 -2.757506
v -0.368959 2.343609 -2.757506
v -0.687818 2.343609 -2.757506
v -0.368959 2.904518 -2.757506
v -0.687818 2.904518 -2.757506
v -0.687818 2.624063 -2.757506
v -0.050099 2.624063 -2.757506
v -0.050099 2.343609 -2.757506
v -0.050099 2.904518 -2.757506
v -0.368959 2.624063 -2.696342
v -0.368959 2.851012 -2.696342
v -0.368959 2.392512 -2.696342
v -0.150233 2.624063 -2.696342
v -0.587685 2.624063 -2.696342
v -0.527367 2.451584 -2.696342
v -0.527367 2.796542 -2.696342
v -0.210550 2.451584 -2.696342
v -0.210550 2.796542 -2.696342
v -0.368959 2.624063 -2.738724
v -0.368959 2.851012 -2.738724
v -0.368959 2.392512 -2.738724
v -0.150233 2.624063 -2.738724
v -0.587685 2.624063 -2.738724
v -0.527367 2.796542 -2.738724
v -0.210550 2.451584 -2.738724
v -0.527367 2.451584 -2.738724
v -0.210550 2.796542 -2.738724
v -0.126885 5.380742 2.358632
v -0.126885 5.380742 -2.358632
v 1.529452 5.380742 -2.358632
v 1.529452 5.380742 2.358632
v 2.368112 5.380742 -2.358632
v 2.368112 5.380742 2.358632
v -0.002953 5.300243 2.210176
v -0.002953 5.300243 -2.210176
v 1.529452 5.300243 -2.210176
v 1.529452 5.300243 2.210176
v 2.244180 5.300243 -2.210176
v 2.244180 5.300243 2.210176
v 1.786680 1.505714 -2.358632
v 1.786680 1.350289 -2.358632
v 1.786680 2.322979 -2.358632
v 1.786680 1.350289 -4.436504
v 1.786680 1.505714 -4.436504
v 1.786680 2.322979 -4.436504
v 1.904064 1.525589 -2.498917
v 1.904064 1.396131 -2.498917
v 1.904064 2.257262 -2.498917
v 1.904064 1.525589 -4.296219
v 1.904064 1.396131 -4.296219
v 1.904064 2.257262 -4.296219
v 1.904064 1.505714 -2.358632
v 1.904064 1.350289 -2.358632
v 1.904064 2.322979 -2.358632
v 1.904064 1.505714 -4.436504
v 1.904064 1.350289 -4.436504
v 1.904064 2.322979 -4.436504
v 1.857051 1.525589 -2.498917
v 1.857051 1.396131 -2.498917
v 1.857051 2.257262 -2.498917
v 1.857051 1.525589 -4.296219
v 1.857051 1.396131 -4.296219
v 1.857051 2.257262 -4.296219
v 1.529452 2.669740 -2.062235
v 1.834476 2.665236 -2.135036
v 1.969002 2.409606 -2.056844
v 2.345497 2.409606 -2.056844
v 2.345497 2.621984 -2.061339
v 1.969002 2.664324 -2.062235
v 1.969002 2.664324 -2.358632
v 1.969002 2.664324 -2.062235
v 1.663977 2.668828 -2.285831
v 1.653899 2.669041 -2.210433
v 1.663977 2.668828 -2.135036
v 1.749227 2.667032 -2.312419
v 1.844554 2.665024 -2.210433
v 1.749227 2.667032 -2.108448
v 1.803011 2.667032 -2.210433
v 1.834476 2.665236 -2.285831
v 1.834476 2.665236 -2.135036
v 1.663977 2.668828 -2.285831
v 1.663977 2.668828 -2.135036
v 1.834476 2.665236 -1.803366
v 1.834476 2.665236 -1.652572
v 1.663977 2.668828 -1.803366
v 1.653899 2.669041 -1.727969
v 1.663977 2.668828 -1.652571
v 1.749227 2.667032 -1.829955
v 1.844554 2.665024 -1.727969
v 1.749227 2.667032 -1.625983
v 1.803011 2.667032 -1.727969
v 1.834476 2.665236 -1.284299
v 1.834476 2.665236 -1.133504
v 1.663977 2.668828 -1.284299
v 1.653899 2.669041 -1.208902
v 1.663977 2.668828 -1.133504
v 1.749227 2.667032 -1.310887
v 1.844554 2.665024 -1.208902
v 1.749227 2.667032 -1.106916
v 1.803011 2.667032 -1.208902
v 1.719577 5.006394 -1.652571
v 1.709499 5.006606 -1.727969
v 1.719577 5.006394 -1.803366
v 1.804826 5.004598 -1.829955
v 1.890075 5.002801 -1.803366
v 1.900153 5.002589 -1.727969
v 1.890075 5.002801 -1.652572
v 1.804826 5.004598 -1.625983
v 1.858611 5.004598 -1.727969
v 1.719577 5.006394 -1.133504
v 1.709499 5.006606 -1.208902
v 1.719577 5.006394 -1.284299
v 1.804826 5.004598 -1.310887
v 1.890075 5.002801 -1.284299
v 1.900153 5.002589 -1.208902
v 1.890075 5.002801 -1.133504
v 1.804826 5.004598 -1.106916
v 1.858611 5.004598 -1.208902
vn -0.0000 -0.0000 1.0000
vn -0.0000 -1.0000 -0.0000
vn -1.0000 -0.0000 -0.0000
vn 0.0123 0.9999 -0.0000
vn 1.0000 -0.0000 -0.0000
vn -0.0000 -0.0000 -1.0000
vn -0.0000 1.0000 -0.0000
vn -0.6090 0.7931 -0.0000
vn 0.0008 1.0000 -0.0000
vn 0.1118 0.9937 -0.0000
vn -0.0000 -0.0242 0.9997
vn -0.0000 -0.0242 -0.9997
vn -0.0000 -0.9992 0.0401
vn -0.9986 -0.0000 0.0520
vn -0.9984 -0.0000 -0.0569
vn -0.9983 -0.0584 -0.0000
vn -0.9986 0.0524 -0.0021
vn -0.9986 0.0532 -0.0000
vn 0.9986 -0.0000 0.0521
vn 0.9984 -0.0000 -0.0569
vn 0.9983 -0.0584 -0.0000
vn 0.9986 -0.0000 0.0520
vn 0.9986 0.0524 -0.0021
vn 0.9986 0.0532 -0.0000
vn -0.0000 0.9992 -0.0401
vn -0.0000 1.0000 -0.0079
vn -0.0000 1.0000 -0.0048
vn 0.6708 0.7417 -0.0000
vn 0.3494 0.9370 -0.0000
vn 0.9439 -0.3301 -0.0000
vn -0.3494 0.9370 -0.0000
vn 0.9439 0.3301 -0.0000
vn 0.7365 0.6764 -0.0000
vn -0.9439 -0.3301 -0.0000
vn -0.3252 -0.9457 -0.0000
vn -0.9439 0.3301 -0.0000
vn 0.3252 -0.9457 -0.0000
vn -0.7365 0.6764 -0.0000
vn -0.7365 -0.6764 -0.0000
vn 0.7365 -0.6764 -0.0000
vn 0.3494 -0.9370 -0.0000
vn -0.3252 0.9457 -0.0000
vn 0.0322 0.9994 0.0104
vn 0.0140 0.9999 -0.0000
vn 0.0064 1.0000 -0.0000
vn 0.0322 0.9994 -0.0104
vn 0.0157 0.9999 -0.0051
vn 0.0157 0.9999 0.0051
vn -0.0322 -0.9994 -0.0104
vn -0.0322 -0.9994 0.0104
vn -0.0157 -0.9999 0.0051
vn -0.0157 -0.9999 -0.0051
vn 0.9909 -0.0236 -0.1325
vn 0.2976 -0.0071 -0.9547
vn 0.2976 -0.0071 0.9547
vn 0.9909 -0.0236 0.1325
vn -0.9909 0.0236 -0.1325
vn -0.2976 0.0071 0.9547
vn -0.9909 0.0236 0.1325
vn -0.2976 0.0071 -0.9547
vn 0.0211 0.9998 -0.0000
vt 0.375000 0.750000
vt 0.625000 0.750000
vt 0.683838 0.779419
vt 0.625000 1.000000
vt 0.375000 1.000000
vt 0.125000 0.500000
vt 0.375000 0.500000
vt 0.125000 0.750000
vt 0.625000 0.000000
vt 0.625000 0.250000
vt 0.375000 0.250000
vt 0.375000 0.000000
vt 0.683838 0.489986
vt 0.625000 0.515708
vt 0.380984 0.506804
vt 0.618420 0.506804
vt 0.624941 0.506804
vt 0.624941 0.521657
vt 0.624941 0.743196
vt 0.618420 0.743196
vt 0.380984 0.743196
vt 0.683838 0.759780
vt 0.683838 0.644207
vt 0.683838 0.624568
vt 0.683838 0.644207
vt 0.819638 0.758520
vt 0.819638 0.491480
vt 0.875000 0.500000
vt 0.875000 0.750000
vt 0.683838 0.470581
vt 0.642040 0.313883
vt 0.642040 0.936117
vt 0.385162 0.261574
vt 0.385162 0.488425
vt 0.614108 0.488425
vt 0.625000 0.500000
vt 0.614108 0.261574
vt 0.626994 0.261521
vt 0.638866 0.488066
vt 0.663436 0.470470
vt 0.000000 0.000000
vt 0.624990 0.516697
vt 0.624990 0.501131
vt 0.625000 0.749975
vt 0.624990 0.748869
vt 0.639751 0.764571
vt 0.621574 0.764191
vt 0.621574 0.764192
vt 0.621575 0.985809
vt 0.378507 0.985808
vt 0.378507 0.764191
vt 0.627560 0.985875
vt 0.663503 0.781806
vt 0.378507 0.985809
vt 0.621574 0.985809
vt 0.627560 0.985875
vt 0.663503 0.781806
vt 0.662939 0.392232
vt 0.649804 0.342990
vt 0.649804 0.342990
vt 0.649804 0.342990
vt 0.676074 0.441474
vt 0.676074 0.441474
vt 0.686002 0.480375
vt 0.692884 0.481183
vt 0.810471 0.751194
vt 0.810471 0.498806
vt 0.692884 0.768817
vt 0.686002 0.769625
vt 0.401716 0.488424
vt 0.401716 0.488424
vt 0.596777 0.488420
vt 0.638276 0.488072
vt 0.596777 0.488420
vt 0.638276 0.488072
vt 0.625000 0.500002
vt 0.654419 0.494069
vt 0.654419 0.499263
vt 0.631721 0.509436
vt 0.631721 0.504704
vt 0.677117 0.477777
vt 0.654419 0.488875
vt 0.631721 0.499973
vt 0.677117 0.489089
vt 0.677117 0.483433
s 0
usemtl Material
f 61/1/1 60/2/1 62/2/1 12/3/1 9/4/1 7/4/1 8/5/1
f 37/6/2 59/7/2 61/1/2 8/8/2
f 7/9/3 9/9/3 40/10/3 39/10/3 37/11/3 8/12/3
f 282/13/4 12/3/4 62/2/4 289/14/4
f 36/15/5 38/16/5 41/17/5 284/18/5 11/19/5 3/20/5 4/21/5
f 26/22/6 24/22/6 28/22/6 30/22/6
f 23/23/5 24/22/5 17/3/5 21/24/5
f 28/22/5 27/23/5 29/25/5 30/22/5
f 25/25/2 26/22/2 30/22/2 29/25/2
f 23/23/1 25/25/1 29/25/1 27/23/1
f 24/22/7 23/23/7 27/23/7 28/22/7
f 32/26/8 35/27/8 34/28/8 33/29/8
f 15/30/6 35/31/6 247/31/6 248/30/6
f 9/4/1 12/3/1 16/3/1 32/32/1 33/4/1
f 40/10/3 9/9/3 33/9/3 34/10/3
f 42/30/6 40/10/6 34/10/6 35/31/6 15/30/6
f 6/33/6 2/34/6 59/7/6 37/11/6
f 2/34/6 1/35/6 58/36/6 59/7/6
f 5/37/6 6/33/6 37/11/6 39/10/6
f 10/38/6 5/37/6 39/10/6 40/10/6
f 14/39/6 13/40/6 42/30/6 288/36/6
f 13/40/6 10/38/6 40/10/6 42/30/6
f 1/35/6 14/39/6 288/36/6 58/36/6
f 44/33/6 46/37/6 47/38/6 49/40/6 48/39/6 45/35/6 43/34/6
f 5/37/3 10/38/3 47/38/3 46/37/3
f 10/38/9 13/40/9 14/39/9 48/39/9 49/40/9 47/38/9
f 6/33/3 5/37/3 46/37/3 44/33/3
f 2/34/2 6/33/2 44/33/2 43/34/2
f 32/32/1 16/3/1 249/3/1 246/32/1
f 35/27/3 32/26/3 246/26/3 247/27/3
f 249/3/1 16/3/1 55/3/1 251/3/1
f 55/41/5 54/41/5 250/41/5 251/41/5
f 16/41/2 15/41/2 54/41/2 55/41/2
f 15/30/6 248/30/6 250/30/6 54/30/6
f 1/35/5 2/34/5 43/34/5 45/35/5 48/39/5 14/39/5
f 21/24/5 18/30/5 19/30/5 22/24/5 20/3/5 31/3/5 17/3/5 24/22/5 26/22/5 25/25/5 23/23/5
f 38/16/5 36/15/5 59/7/5 58/36/5
f 4/21/5 3/20/5 60/2/5 61/1/5
f 36/15/5 4/21/5 61/1/5 59/7/5
f 284/18/2 41/17/2 65/17/2 285/18/2
f 3/20/5 11/19/5 62/2/5 60/2/5
f 41/17/5 38/16/5 58/36/5 288/36/5
f 286/42/10 69/43/10 68/36/10 287/14/10
f 289/44/7 62/2/7 67/2/7 287/44/7
f 285/18/5 65/17/5 69/43/5 286/42/5
f 62/2/11 11/19/11 64/19/11 66/45/11 67/2/11
f 41/17/12 288/36/12 68/36/12 69/43/12 65/17/12
f 76/46/6 74/47/6 100/47/6 104/46/6
f 79/48/6 83/46/6 111/46/6 107/48/6
f 89/3/2 88/4/2 95/4/2 96/3/2
f 90/2/13 89/3/13 96/3/13 97/2/13
f 84/5/7 87/1/7 94/1/7 91/5/7
f 85/4/6 84/5/6 91/5/6 92/4/6
f 86/2/1 90/2/1 97/2/1 93/2/1
f 88/4/6 85/4/6 92/4/6 95/4/6
f 87/1/1 86/2/1 93/2/1 94/1/1
f 70/49/14 71/50/14 84/5/14 85/4/14
f 75/51/15 74/47/15 86/2/15 87/1/15
f 71/50/16 75/51/16 87/1/16 84/5/16
f 72/52/14 70/49/14 85/4/14 88/4/14
f 76/46/17 73/53/17 89/3/17 90/2/17
f 74/47/15 76/46/15 90/2/15 86/2/15
f 73/53/18 72/52/18 88/4/18 89/3/18
f 77/54/19 78/55/19 92/4/19 91/5/19
f 79/48/20 80/51/20 94/1/20 93/2/20
f 80/51/21 77/54/21 91/5/21 94/1/21
f 78/55/22 81/56/22 95/4/22 92/4/22
f 82/57/23 83/46/23 97/2/23 96/3/23
f 83/46/20 79/48/20 93/2/20 97/2/20
f 81/56/24 82/57/24 96/3/24 95/4/24
f 101/51/3 98/50/3 99/49/3 102/52/3 103/53/3 104/46/3 100/47/3
f 70/49/1 72/52/1 102/52/1 99/49/1
f 74/47/6 75/51/6 101/51/6 100/47/6
f 72/52/7 73/53/7 103/53/7 102/52/7
f 73/53/25 76/46/25 104/46/25 103/53/25
f 75/51/2 71/50/2 98/50/2 101/51/2
f 71/50/1 70/49/1 99/49/1 98/50/1
f 108/51/5 107/48/5 111/46/5 110/57/5 109/56/5 106/55/5 105/54/5
f 81/56/1 78/55/1 106/55/1 109/56/1
f 80/51/6 79/48/6 107/48/6 108/51/6
f 82/57/7 81/56/7 109/56/7 110/57/7
f 83/46/25 82/57/25 110/57/25 111/46/25
f 77/54/2 80/51/2 108/51/2 105/54/2
f 78/55/1 77/54/1 105/54/1 106/55/1
f 115/51/3 112/54/3 113/55/3 116/56/3 117/57/3 118/46/3 114/48/3
f 122/51/5 121/48/5 125/46/5 124/57/5 123/56/5 120/55/5 119/54/5
f 118/46/26 117/57/26 124/57/26 125/46/26
f 112/54/2 115/51/2 122/51/2 119/54/2
f 113/55/1 112/54/1 119/54/1 120/55/1
f 114/48/6 118/46/6 125/46/6 121/48/6
f 116/56/1 113/55/1 120/55/1 123/56/1
f 115/51/6 114/48/6 121/48/6 122/51/6
f 117/57/7 116/56/7 123/56/7 124/57/7
f 129/51/3 126/54/3 127/55/3 130/56/3 131/57/3 132/46/3 128/48/3
f 136/51/5 135/48/5 139/46/5 138/57/5 137/56/5 134/55/5 133/54/5
f 132/46/27 131/57/27 138/57/27 139/46/27
f 126/54/2 129/51/2 136/51/2 133/54/2
f 127/55/1 126/54/1 133/54/1 134/55/1
f 128/48/6 132/46/6 139/46/6 135/48/6
f 130/56/1 127/55/1 134/55/1 137/56/1
f 129/51/6 128/48/6 135/48/6 136/51/6
f 131/57/7 130/56/7 137/56/7 138/57/7
f 143/15/3 141/21/3 140/20/3 142/19/3 145/17/3 144/16/3
f 147/15/5 146/16/5 151/17/5 150/19/5 148/20/5 149/21/5
f 144/16/6 145/17/6 151/17/6 146/16/6
f 145/17/7 142/19/7 150/19/7 151/17/7
f 140/20/1 141/21/1 149/21/1 148/20/1
f 142/19/1 140/20/1 148/20/1 150/19/1
f 141/21/2 143/15/2 147/15/2 149/21/2
f 143/15/6 144/16/6 146/16/6 147/15/6
f 152/35/3 154/39/3 157/39/3 156/35/3 155/34/3 153/34/3
f 163/39/28 160/39/28 166/39/28 169/39/28
f 152/35/1 153/34/1 159/34/1 158/35/1
f 157/39/7 154/39/7 160/39/7 163/39/7
f 156/35/6 157/39/6 163/39/6 161/35/6
f 154/39/1 152/35/1 158/35/1 160/39/1
f 153/34/2 155/34/2 162/34/2 159/34/2
f 155/34/6 156/35/6 161/35/6 162/34/6
f 164/35/5 165/34/5 168/34/5 167/35/5 169/39/5 166/39/5
f 161/35/6 163/39/6 169/39/6 167/35/6
f 160/39/1 158/35/1 164/35/1 166/39/1
f 159/34/2 162/34/2 168/34/2 165/34/2
f 162/34/6 161/35/6 167/35/6 168/34/6
f 158/35/1 159/34/1 165/34/1 164/35/1
f 170/30/1 172/30/1 173/31/1 171/31/1
f 178/58/29 175/59/29 195/59/29 192/58/29
f 172/30/5 170/30/5 188/30/5 187/30/5 189/30/5
f 173/31/7 172/30/7 189/30/7 184/58/7 185/31/7
f 171/31/3 173/31/3 185/31/3 186/31/3 183/31/3
f 170/30/2 171/31/2 183/31/2 182/58/2 188/30/2
f 180/60/30 177/61/30 196/61/30 194/60/30
f 174/62/31 178/58/31 192/58/31 197/62/31
f 175/59/32 180/60/32 194/60/32 195/59/32
f 175/59/6 178/58/6 182/58/6 183/31/6
f 179/58/6 177/61/6 185/31/6 184/58/6
f 177/61/6 180/60/6 186/31/6 185/31/6
f 174/62/6 181/63/6 187/30/6 188/30/6
f 178/58/6 174/62/6 188/30/6 182/58/6
f 176/62/6 179/58/6 184/58/6 189/30/6
f 180/60/6 175/59/6 183/31/6 186/31/6
f 181/63/6 176/62/6 189/30/6 187/30/6
f 190/58/6 194/60/6 196/61/6
f 190/58/6 191/58/6 198/62/6
f 194/60/7 190/58/7 199/58/7 203/60/7
f 190/58/33 197/62/33 205/62/33 199/58/33
f 176/62/34 181/63/34 193/63/34 198/62/34
f 179/58/35 176/62/35 198/62/35 191/58/35
f 181/63/36 174/62/36 197/62/36 193/63/36
f 177/61/37 179/58/37 191/58/37 196/61/37
f 193/63/6 197/62/6 190/58/6
f 193/63/2 190/58/2 199/58/2 202/63/2
f 192/58/6 195/59/6 190/58/6
f 190/58/38 198/62/38 207/62/38 199/58/38
f 205/62/6 201/58/6 199/58/6
f 206/59/6 203/60/6 199/58/6
f 200/58/6 199/58/6 204/61/6
f 202/63/6 199/58/6 207/62/6
f 195/59/34 194/60/34 203/60/34 206/59/34
f 190/58/39 196/61/39 204/61/39 199/58/39
f 191/58/5 190/58/5 199/58/5 200/58/5
f 198/62/32 193/63/32 202/63/32 207/62/32
f 190/58/40 195/59/40 206/59/40 199/58/40
f 192/58/3 190/58/3 199/58/3 201/58/3
f 197/62/41 192/58/41 201/58/41 205/62/41
f 196/61/42 191/58/42 200/58/42 204/61/42
f 216/58/29 213/59/29 233/59/29 230/58/29
f 210/30/5 208/30/5 226/30/5 225/30/5 227/30/5
f 211/31/7 210/30/7 227/30/7 222/58/7 223/31/7
f 209/31/3 211/31/3 223/31/3 224/31/3 221/31/3
f 218/60/30 215/61/30 234/61/30 232/60/30
f 212/62/31 216/58/31 230/58/31 235/62/31
f 213/59/32 218/60/32 232/60/32 233/59/32
f 213/59/6 216/58/6 220/58/6 221/31/6
f 217/58/6 215/61/6 223/31/6 222/58/6
f 215/61/6 218/60/6 224/31/6 223/31/6
f 212/62/6 219/63/6 225/30/6 226/30/6
f 216/58/6 212/62/6 226/30/6 220/58/6
f 214/62/6 217/58/6 222/58/6 227/30/6
f 218/60/6 213/59/6 221/31/6 224/31/6
f 219/63/6 214/62/6 227/30/6 225/30/6
f 228/58/6 232/60/6 234/61/6
f 228/58/6 229/58/6 236/62/6
f 232/60/7 228/58/7 237/58/7 241/60/7
f 228/58/33 235/62/33 243/62/33 237/58/33
f 219/63/36 212/62/36 235/62/36 231/63/36
f 231/63/6 235/62/6 228/58/6
f 230/58/6 233/59/6 228/58/6
f 228/58/38 236/62/38 245/62/38 237/58/38
f 243/62/6 239/58/6 237/58/6
f 244/59/6 241/60/6 237/58/6
f 238/58/6 237/58/6 242/61/6
f 240/63/6 237/58/6 245/62/6
f 229/58/5 228/58/5 237/58/5 238/58/5
f 56/64/1 50/65/1 254/65/1 256/64/1
f 52/66/7 53/67/7 247/27/7 246/26/7
f 53/67/7 50/65/7 248/30/7 247/27/7
f 51/68/7 52/66/7 246/26/7 249/3/7
f 56/64/7 57/69/7 251/3/7 250/30/7
f 57/69/7 51/68/7 249/3/7 251/3/7
f 50/65/7 56/64/7 250/30/7 248/30/7
f 254/65/7 253/67/7 252/66/7 255/68/7 257/69/7 256/64/7
f 57/69/3 56/64/3 256/64/3 257/69/3
f 50/65/1 53/67/1 253/67/1 254/65/1
f 51/68/6 57/69/6 257/69/6 255/68/6
f 52/66/6 51/68/6 255/68/6 252/66/6
f 53/67/5 52/66/5 252/66/5 253/67/5
f 258/35/3 260/39/3 263/39/3 262/35/3 261/34/3 259/34/3
f 265/70/7 268/71/7 280/71/7 277/70/7
f 262/35/6 263/39/6 275/39/6 273/35/6
f 260/39/1 258/35/1 270/35/1 272/39/1
f 259/34/2 261/34/2 274/34/2 271/34/2
f 261/34/6 262/35/6 273/35/6 274/34/6
f 258/35/1 259/34/1 271/34/1 270/35/1
f 263/39/7 260/39/7 272/39/7 275/39/7
f 265/70/5 264/72/5 270/35/5 271/34/5
f 264/72/5 266/73/5 272/39/5 270/35/5
f 267/74/5 268/71/5 274/34/5 273/35/5
f 269/75/5 267/74/5 273/35/5 275/39/5
f 268/71/5 265/70/5 271/34/5 274/34/5
f 266/73/5 269/75/5 275/39/5 272/39/5
f 276/72/5 277/70/5 280/71/5 279/74/5 281/75/5 278/73/5
f 268/71/1 267/74/1 279/74/1 280/71/1
f 264/72/6 265/70/6 277/70/6 276/72/6
f 269/75/2 266/73/2 278/73/2 281/75/2
f 267/74/1 269/75/1 281/75/1 279/74/1
f 266/73/6 264/72/6 276/72/6 278/73/6
f 64/19/5 285/18/5 286/42/5 66/45/5
f 288/36/7 289/76/7 287/76/7 68/36/7
f 66/45/10 286/42/10 287/14/10 67/2/10
f 11/19/2 284/18/2 285/18/2 64/19/2
f 296/77/43 295/78/43 283/79/43 294/80/43
f 290/81/44 293/82/44 63/83/44 288/36/44 42/30/44
f 63/83/45 294/80/45 283/79/45 289/14/45 288/36/45
f 292/84/45 291/85/45 290/81/45 42/30/45 282/13/45
f 283/79/44 295/78/44 292/84/44 282/13/44 289/14/44
f 293/82/46 296/77/46 294/80/46 63/83/46
f 290/81/47 291/85/47 296/77/47 293/82/47
f 291/85/48 292/84/48 295/78/48 296/77/48
f 309/77/49 307/80/49 302/79/49 308/78/49
f 306/82/50 301/83/50 307/80/50 309/77/50
f 303/81/51 306/82/51 309/77/51 304/85/51
f 304/85/52 309/77/52 308/78/52 305/84/52
f 318/77/49 316/80/49 311/79/49 317/78/49
f 315/82/50 310/83/50 316/80/50 318/77/50
f 312/81/51 315/82/51 318/77/51 313/85/51
f 313/85/52 318/77/52 317/78/52 314/84/52
f 327/77/43 326/78/43 325/79/43 324/80/43
f 322/82/46 327/77/46 324/80/46 323/83/46
f 321/81/47 320/85/47 327/77/47 322/82/47
f 320/85/48 319/84/48 326/78/48 327/77/48
f 336/77/43 335/78/43 334/79/43 333/80/43
f 331/82/46 336/77/46 333/80/46 332/83/46
f 330/81/47 329/85/47 336/77/47 331/82/47
f 329/85/48 328/84/48 335/78/48 336/77/48
f 307/80/53 301/83/53 323/83/53 324/80/53
f 310/83/54 315/82/54 331/82/54 332/83/54
f 308/78/55 302/79/55 325/79/55 326/78/55
f 311/79/56 316/80/56 333/80/56 334/79/56
f 303/81/57 304/85/57 320/85/57 321/81/57
f 314/84/58 317/78/58 335/78/58 328/84/58
f 313/85/59 314/84/59 328/84/59 329/85/59
f 301/83/54 306/82/54 322/82/54 323/83/54
f 315/82/60 312/81/60 330/81/60 331/82/60
f 302/79/56 307/80/56 324/80/56 325/79/56
f 316/80/53 310/83/53 332/83/53 333/80/53
f 305/84/58 308/78/58 326/78/58 319/84/58
f 304/85/59 305/84/59 319/84/59 320/85/59
f 317/78/55 311/79/55 334/79/55 335/78/55
f 306/82/60 303/81/60 321/81/60 322/82/60
f 312/81/57 313/85/57 329/85/57 330/81/57
f 298/79/61 297/83/61 299/81/61 300/84/61
